<?xml version="1.0" encoding="UTF-8"?>
<svg xmlns="http://www.w3.org/2000/svg" xmlns:xlink="http://www.w3.org/1999/xlink" width="375pt" height="374.999991pt" viewBox="0 0 375 374.999991" version="1.2">
<defs>
<clipPath id="clip1">
  <path d="M 19.085938 0 L 355.835938 0 L 355.835938 375 L 19.085938 375 Z M 19.085938 0 "/>
</clipPath>
</defs>
<g id="surface1">
<g clip-path="url(#clip1)" clip-rule="nonzero">
<path style=" stroke:none;fill-rule:nonzero;fill:rgb(32.939148%,32.939148%,32.939148%);fill-opacity:1;" d="M 215.363281 115.578125 L 118.546875 212.414062 C 117.980469 212.980469 117.386719 213.519531 116.769531 214.027344 C 116.148438 214.535156 115.507812 215.011719 114.839844 215.457031 C 114.175781 215.902344 113.488281 216.3125 112.78125 216.691406 C 112.074219 217.070312 111.351562 217.410156 110.613281 217.71875 C 109.871094 218.023438 109.117188 218.292969 108.351562 218.527344 C 107.585938 218.761719 106.808594 218.953125 106.023438 219.109375 C 105.238281 219.265625 104.445312 219.382812 103.648438 219.464844 C 102.851562 219.542969 102.050781 219.582031 101.25 219.582031 C 100.449219 219.582031 99.648438 219.542969 98.851562 219.464844 C 98.054688 219.382812 97.261719 219.265625 96.476562 219.109375 C 95.691406 218.953125 94.914062 218.761719 94.148438 218.527344 C 93.382812 218.292969 92.628906 218.023438 91.890625 217.71875 C 91.148438 217.410156 90.425781 217.070312 89.71875 216.691406 C 89.011719 216.3125 88.324219 215.902344 87.660156 215.457031 C 86.992188 215.011719 86.351562 214.535156 85.730469 214.027344 C 85.113281 213.519531 84.519531 212.980469 83.953125 212.414062 C 83.386719 211.847656 82.847656 211.253906 82.339844 210.636719 C 81.832031 210.015625 81.355469 209.371094 80.910156 208.707031 C 80.464844 208.039062 80.054688 207.355469 79.675781 206.648438 C 79.296875 205.941406 78.957031 205.214844 78.648438 204.476562 C 78.34375 203.734375 78.074219 202.980469 77.839844 202.214844 C 77.609375 201.449219 77.414062 200.671875 77.257812 199.886719 C 77.101562 199.101562 76.984375 198.308594 76.90625 197.511719 C 76.828125 196.714844 76.789062 195.914062 76.789062 195.113281 C 76.789062 194.3125 76.828125 193.511719 76.90625 192.714844 C 76.984375 191.917969 77.101562 191.125 77.257812 190.339844 C 77.414062 189.554688 77.609375 188.777344 77.839844 188.011719 C 78.074219 187.242188 78.34375 186.488281 78.648438 185.75 C 78.957031 185.007812 79.296875 184.285156 79.675781 183.578125 C 80.054688 182.871094 80.464844 182.183594 80.910156 181.519531 C 81.355469 180.851562 81.832031 180.210938 82.339844 179.589844 C 82.847656 178.972656 83.386719 178.378906 83.953125 177.8125 L 180.796875 81.058594 L 222.945312 0 L 140.023438 40.285156 L 43.140625 136.988281 C 11.097656 169.039062 11.097656 221.1875 43.140625 253.238281 C 75.183594 285.292969 127.324219 285.289062 159.363281 253.238281 L 256.179688 156.40625 C 256.75 155.835938 257.34375 155.292969 257.96875 154.785156 C 258.589844 154.273438 259.234375 153.792969 259.902344 153.34375 C 260.574219 152.898438 261.261719 152.484375 261.972656 152.101562 C 262.683594 151.722656 263.410156 151.378906 264.152344 151.070312 C 264.898438 150.761719 265.652344 150.492188 266.425781 150.257812 C 267.195312 150.023438 267.976562 149.828125 268.765625 149.667969 C 269.554688 149.511719 270.351562 149.394531 271.152344 149.316406 C 271.953125 149.234375 272.753906 149.195312 273.5625 149.195312 C 274.367188 149.195312 275.167969 149.234375 275.96875 149.3125 C 276.773438 149.390625 277.566406 149.507812 278.355469 149.667969 C 279.148438 149.824219 279.925781 150.019531 280.699219 150.253906 C 281.46875 150.484375 282.226562 150.757812 282.96875 151.066406 C 283.714844 151.371094 284.441406 151.714844 285.148438 152.097656 C 285.859375 152.476562 286.550781 152.890625 287.21875 153.335938 C 287.890625 153.785156 288.535156 154.261719 289.15625 154.773438 C 289.78125 155.285156 290.375 155.824219 290.945312 156.394531 C 291.515625 156.964844 292.054688 157.558594 292.566406 158.183594 C 293.078125 158.804688 293.554688 159.449219 294.003906 160.121094 C 294.449219 160.789062 294.863281 161.480469 295.242188 162.191406 C 295.625 162.902344 295.96875 163.628906 296.273438 164.371094 C 296.582031 165.117188 296.855469 165.875 297.085938 166.644531 C 297.320312 167.414062 297.515625 168.195312 297.671875 168.984375 C 297.832031 169.773438 297.949219 170.570312 298.027344 171.371094 C 298.105469 172.171875 298.144531 172.976562 298.144531 173.78125 C 298.144531 174.585938 298.105469 175.390625 298.027344 176.191406 C 297.949219 176.992188 297.828125 177.789062 297.671875 178.578125 C 297.515625 179.367188 297.320312 180.148438 297.085938 180.917969 C 296.851562 181.691406 296.578125 182.449219 296.273438 183.191406 C 295.964844 183.933594 295.617188 184.664062 295.238281 185.371094 C 294.859375 186.082031 294.445312 186.773438 294 187.441406 C 293.550781 188.113281 293.070312 188.757812 292.558594 189.378906 C 292.050781 190.003906 291.507812 190.597656 290.9375 191.167969 L 192.269531 289.855469 L 192.269531 289.835938 L 179.464844 302.644531 L 178.207031 303.902344 L 156.40625 325.6875 C 155.738281 326.355469 155.101562 327.058594 154.503906 327.789062 C 153.902344 328.523438 153.339844 329.28125 152.816406 330.070312 C 152.289062 330.855469 151.804688 331.667969 151.359375 332.503906 C 150.914062 333.335938 150.511719 334.191406 150.148438 335.066406 C 149.789062 335.941406 149.46875 336.832031 149.195312 337.738281 C 148.921875 338.644531 148.695312 339.5625 148.507812 340.488281 C 148.324219 341.417969 148.1875 342.351562 148.097656 343.296875 C 148.003906 344.238281 147.957031 345.179688 147.960938 346.128906 C 147.960938 347.074219 148.007812 348.019531 148.101562 348.960938 C 148.195312 349.902344 148.332031 350.835938 148.519531 351.765625 C 148.703125 352.691406 148.933594 353.609375 149.210938 354.515625 C 149.484375 355.421875 149.804688 356.3125 150.167969 357.183594 C 150.53125 358.058594 150.933594 358.914062 151.382812 359.746094 C 151.828125 360.582031 152.316406 361.390625 152.84375 362.179688 C 153.367188 362.964844 153.933594 363.722656 154.53125 364.457031 C 155.132812 365.1875 155.769531 365.886719 156.4375 366.554688 C 157.109375 367.222656 157.808594 367.859375 158.539062 368.457031 C 159.269531 369.058594 160.03125 369.621094 160.816406 370.148438 C 161.601562 370.671875 162.414062 371.160156 163.246094 371.605469 C 164.082031 372.050781 164.9375 372.453125 165.808594 372.816406 C 166.683594 373.179688 167.574219 373.496094 168.480469 373.769531 C 169.382812 374.046875 170.300781 374.277344 171.230469 374.460938 C 172.15625 374.644531 173.089844 374.785156 174.03125 374.875 C 174.972656 374.96875 175.917969 375.015625 176.863281 375.015625 C 177.808594 375.015625 178.753906 374.96875 179.695312 374.875 C 180.636719 374.785156 181.570312 374.644531 182.5 374.460938 C 183.425781 374.277344 184.34375 374.046875 185.25 373.769531 C 186.15625 373.496094 187.042969 373.179688 187.917969 372.816406 C 188.792969 372.453125 189.644531 372.050781 190.480469 371.605469 C 191.316406 371.160156 192.125 370.671875 192.910156 370.148438 C 193.699219 369.621094 194.457031 369.058594 195.1875 368.457031 C 195.921875 367.859375 196.621094 367.222656 197.289062 366.554688 L 219.089844 344.75 L 220.347656 343.492188 L 233.152344 330.683594 L 331.753906 231.992188 C 363.839844 199.898438 363.839844 147.675781 331.753906 115.578125 C 299.664062 83.484375 247.453125 83.484375 215.363281 115.578125 Z M 144.960938 57.25 L 145.121094 41.15625 L 204.621094 12.222656 L 210.265625 17.871094 L 180.015625 76.050781 L 161.519531 73.816406 L 162.566406 58.59375 Z M 228.867188 330.699219 L 219.050781 340.511719 L 182.433594 303.894531 L 192.246094 294.078125 Z M 228.867188 330.699219 "/>
</g>
</g>
</svg>
