<?xml version="1.0" encoding="UTF-8"?>
<svg xmlns="http://www.w3.org/2000/svg" xmlns:xlink="http://www.w3.org/1999/xlink" width="375pt" height="374.999991pt" viewBox="0 0 375 374.999991" version="1.2">
<defs>
<clipPath id="clip1">
  <path d="M 20.050781 1.074219 L 355.300781 1.074219 L 355.300781 373.824219 L 20.050781 373.824219 Z M 20.050781 1.074219 "/>
</clipPath>
</defs>
<g id="surface1">
<g clip-path="url(#clip1)" clip-rule="nonzero">
<path style=" stroke:none;fill-rule:nonzero;fill:rgb(100%,100%,100%);fill-opacity:1;" d="M 215.449219 115.957031 L 119.070312 212.210938 C 118.507812 212.777344 117.917969 213.308594 117.300781 213.816406 C 116.683594 214.320312 116.042969 214.792969 115.382812 215.238281 C 114.71875 215.679688 114.035156 216.089844 113.332031 216.464844 C 112.628906 216.839844 111.90625 217.179688 111.171875 217.484375 C 110.433594 217.789062 109.683594 218.058594 108.921875 218.289062 C 108.15625 218.519531 107.382812 218.714844 106.601562 218.867188 C 105.820312 219.023438 105.03125 219.140625 104.238281 219.21875 C 103.445312 219.296875 102.648438 219.335938 101.851562 219.335938 C 101.054688 219.335938 100.257812 219.296875 99.464844 219.21875 C 98.671875 219.140625 97.882812 219.023438 97.101562 218.867188 C 96.316406 218.714844 95.546875 218.519531 94.78125 218.289062 C 94.019531 218.058594 93.269531 217.789062 92.53125 217.484375 C 91.796875 217.179688 91.074219 216.839844 90.371094 216.464844 C 89.667969 216.089844 88.984375 215.679688 88.320312 215.238281 C 87.660156 214.792969 87.019531 214.320312 86.402344 213.816406 C 85.785156 213.308594 85.195312 212.777344 84.632812 212.210938 C 84.066406 211.648438 83.53125 211.058594 83.027344 210.445312 C 82.519531 209.828125 82.046875 209.1875 81.601562 208.527344 C 81.160156 207.863281 80.75 207.183594 80.375 206.480469 C 80 205.777344 79.65625 205.058594 79.351562 204.320312 C 79.046875 203.585938 78.777344 202.835938 78.546875 202.074219 C 78.316406 201.3125 78.121094 200.539062 77.964844 199.757812 C 77.8125 198.976562 77.695312 198.191406 77.617188 197.398438 C 77.539062 196.605469 77.5 195.8125 77.5 195.015625 C 77.5 194.21875 77.539062 193.421875 77.617188 192.628906 C 77.695312 191.839844 77.8125 191.050781 77.964844 190.269531 C 78.121094 189.488281 78.316406 188.71875 78.546875 187.953125 C 78.777344 187.191406 79.046875 186.445312 79.351562 185.707031 C 79.65625 184.972656 80 184.253906 80.375 183.550781 C 80.75 182.847656 81.160156 182.164062 81.601562 181.503906 C 82.046875 180.839844 82.519531 180.203125 83.027344 179.585938 C 83.53125 178.96875 84.066406 178.378906 84.632812 177.816406 L 181.039062 81.644531 L 223 1.074219 L 140.449219 41.117188 L 44.003906 137.242188 C 12.105469 169.097656 12.105469 220.933594 44.003906 252.792969 C 75.902344 284.652344 127.808594 284.648438 159.703125 252.792969 L 256.085938 156.539062 C 256.652344 155.972656 257.242188 155.433594 257.863281 154.925781 C 258.484375 154.417969 259.125 153.941406 259.792969 153.496094 C 260.457031 153.050781 261.144531 152.640625 261.851562 152.261719 C 262.558594 151.886719 263.28125 151.542969 264.023438 151.238281 C 264.761719 150.929688 265.515625 150.660156 266.28125 150.425781 C 267.050781 150.195312 267.828125 150 268.613281 149.84375 C 269.398438 149.6875 270.191406 149.570312 270.988281 149.492188 C 271.785156 149.414062 272.585938 149.371094 273.386719 149.371094 C 274.1875 149.371094 274.988281 149.410156 275.785156 149.488281 C 276.582031 149.566406 277.375 149.683594 278.160156 149.839844 C 278.949219 149.996094 279.722656 150.191406 280.492188 150.421875 C 281.257812 150.65625 282.011719 150.925781 282.753906 151.230469 C 283.492188 151.539062 284.21875 151.878906 284.925781 152.257812 C 285.632812 152.632812 286.316406 153.042969 286.984375 153.488281 C 287.652344 153.933594 288.292969 154.410156 288.914062 154.917969 C 289.535156 155.425781 290.125 155.960938 290.695312 156.527344 C 291.261719 157.09375 291.796875 157.6875 292.304688 158.304688 C 292.816406 158.925781 293.292969 159.566406 293.738281 160.230469 C 294.183594 160.898438 294.59375 161.582031 294.972656 162.289062 C 295.351562 162.996094 295.691406 163.71875 296 164.457031 C 296.304688 165.199219 296.574219 165.949219 296.808594 166.714844 C 297.039062 167.484375 297.234375 168.257812 297.390625 169.042969 C 297.546875 169.828125 297.664062 170.621094 297.742188 171.414062 C 297.820312 172.210938 297.859375 173.011719 297.859375 173.8125 C 297.859375 174.613281 297.820312 175.410156 297.742188 176.207031 C 297.664062 177.003906 297.546875 177.796875 297.390625 178.582031 C 297.234375 179.363281 297.039062 180.140625 296.804688 180.90625 C 296.574219 181.671875 296.300781 182.425781 295.996094 183.164062 C 295.6875 183.90625 295.347656 184.628906 294.96875 185.332031 C 294.589844 186.039062 294.179688 186.722656 293.730469 187.390625 C 293.285156 188.054688 292.808594 188.699219 292.300781 189.316406 C 291.792969 189.933594 291.253906 190.527344 290.6875 191.09375 L 192.464844 289.1875 L 192.464844 289.167969 L 179.714844 301.902344 L 178.460938 303.152344 L 156.757812 324.804688 C 156.09375 325.472656 155.460938 326.167969 154.863281 326.894531 C 154.265625 327.625 153.707031 328.378906 153.183594 329.160156 C 152.664062 329.945312 152.179688 330.75 151.734375 331.582031 C 151.292969 332.410156 150.890625 333.261719 150.53125 334.128906 C 150.171875 335 149.855469 335.882812 149.582031 336.785156 C 149.308594 337.683594 149.082031 338.597656 148.898438 339.519531 C 148.714844 340.441406 148.578125 341.371094 148.488281 342.308594 C 148.394531 343.246094 148.347656 344.183594 148.351562 345.125 C 148.351562 346.0625 148.398438 347.003906 148.492188 347.9375 C 148.585938 348.875 148.722656 349.804688 148.90625 350.726562 C 149.09375 351.648438 149.320312 352.5625 149.59375 353.460938 C 149.871094 354.359375 150.1875 355.246094 150.550781 356.113281 C 150.910156 356.984375 151.3125 357.832031 151.757812 358.660156 C 152.203125 359.492188 152.6875 360.296875 153.210938 361.078125 C 153.734375 361.859375 154.296875 362.613281 154.894531 363.339844 C 155.492188 364.066406 156.125 364.761719 156.792969 365.429688 C 157.457031 366.09375 158.15625 366.722656 158.882812 367.320312 C 159.609375 367.917969 160.367188 368.476562 161.148438 369 C 161.933594 369.519531 162.738281 370.003906 163.570312 370.449219 C 164.402344 370.890625 165.25 371.292969 166.121094 371.652344 C 166.992188 372.011719 167.875 372.328125 168.777344 372.601562 C 169.679688 372.875 170.59375 373.101562 171.515625 373.285156 C 172.4375 373.46875 173.371094 373.605469 174.308594 373.699219 C 175.242188 373.792969 176.183594 373.835938 177.125 373.835938 C 178.066406 373.835938 179.007812 373.792969 179.945312 373.699219 C 180.882812 373.605469 181.8125 373.46875 182.734375 373.285156 C 183.660156 373.101562 184.570312 372.875 185.472656 372.601562 C 186.375 372.328125 187.257812 372.011719 188.128906 371.652344 C 189 371.292969 189.851562 370.890625 190.679688 370.449219 C 191.511719 370.003906 192.316406 369.519531 193.101562 369 C 193.882812 368.476562 194.640625 367.917969 195.367188 367.320312 C 196.097656 366.722656 196.792969 366.09375 197.457031 365.429688 L 219.160156 343.753906 L 220.414062 342.503906 L 233.160156 329.773438 L 331.316406 231.671875 C 363.261719 199.769531 363.261719 147.859375 331.316406 115.957031 C 299.371094 84.054688 247.394531 84.054688 215.449219 115.957031 Z M 145.363281 57.980469 L 145.523438 41.984375 L 204.757812 13.222656 L 210.375 18.835938 L 180.265625 76.664062 L 161.851562 74.449219 L 162.894531 59.3125 Z M 228.894531 329.785156 L 219.125 339.539062 L 182.667969 303.144531 L 192.4375 293.386719 Z M 228.894531 329.785156 "/>
</g>
</g>
</svg>
